HIERARCHY
ROOT Hips
{
	OFFSET 0.000000 0.000000 0.000000
	CHANNELS 6 Xposition Yposition Zposition Xrotation Yrotation Zrotation
	JOINT LeftUpLeg_virtual
	{
		OFFSET 0.000000 0.000000 0.000000
		CHANNELS 3 Xrotation Yrotation Zrotation
		JOINT LeftUpLeg
		{
			OFFSET 10.205400 -3.823500 0.155100
			CHANNELS 3 Xrotation Yrotation Zrotation
			JOINT LeftLeg
			{
				OFFSET 0.708757 -12.982077 0.567790
				CHANNELS 3 Xrotation Yrotation Zrotation
				JOINT LeftFoot
				{
					OFFSET -0.708756 -10.717838 -2.184338
					CHANNELS 3 Xrotation Yrotation Zrotation
					JOINT LeftToeBase
					{
						OFFSET 0.108149 -7.191104 7.560241
						CHANNELS 3 Xrotation Yrotation Zrotation
						JOINT LeftToe_End
						{
							OFFSET 0.070230 0.081724 4.490308
							CHANNELS 3 Xrotation Yrotation Zrotation
							End Site
							{
								OFFSET 0 0 0
							}
						}
					}
				}
			}
		}
	}
	JOINT RightUpLeg_virtual
	{
		OFFSET 0.000000 0.000000 0.000000
		CHANNELS 3 Xrotation Yrotation Zrotation
		JOINT RightUpLeg
		{
			OFFSET -10.205400 -3.823500 0.005500
			CHANNELS 3 Xrotation Yrotation Zrotation
			JOINT RightLeg
			{
				OFFSET -0.708756 -12.982134 0.610632
				CHANNELS 3 Xrotation Yrotation Zrotation
				JOINT RightFoot
				{
					OFFSET 0.708754 -10.717769 -1.945823
					CHANNELS 3 Xrotation Yrotation Zrotation
					JOINT RightToeBase
					{
						OFFSET -0.108140 -7.191069 7.372968
						CHANNELS 3 Xrotation Yrotation Zrotation
						JOINT RightToe_End
						{
							OFFSET -0.070227 0.081735 4.479403
							CHANNELS 3 Xrotation Yrotation Zrotation
							End Site
							{
								OFFSET 0 0 0
							}
						}
					}
				}
			}
		}
	}
	JOINT Spine_virtual
	{
		OFFSET 0.000000 0.000000 0.000000
		CHANNELS 3 Xrotation Yrotation Zrotation
		JOINT Spine
		{
			OFFSET 0.000000 6.876099 0.125700
			CHANNELS 3 Xrotation Yrotation Zrotation
			JOINT Spine1
			{
				OFFSET 0.000000 5.730043 0.104720
				CHANNELS 3 Xrotation Yrotation Zrotation
				JOINT Spine1_split
				{
					OFFSET 0.000000 5.730043 0.104720
					CHANNELS 3 Xrotation Yrotation Zrotation
					JOINT Spine2
					{
						OFFSET 0.000000 5.730043 0.104720
						CHANNELS 3 Xrotation Yrotation Zrotation
						JOINT Neck_virtual
						{
							OFFSET 0.000000 0.000000 0.000000
							CHANNELS 3 Xrotation Yrotation Zrotation
							JOINT Neck
							{
								OFFSET 0.000000 10.314075 0.188496
								CHANNELS 3 Xrotation Yrotation Zrotation
								JOINT Head
								{
									OFFSET 0.000000 7.643700 -2.377400
									CHANNELS 3 Xrotation Yrotation Zrotation
									JOINT HeadTop_End
									{
										OFFSET 0.000000 43.788605 -13.619600
										CHANNELS 3 Xrotation Yrotation Zrotation
										End Site
										{
											OFFSET 0 0 0
										}
									}
								}
							}
						}
						JOINT LeftShoulder_virtual
						{
							OFFSET 0.000000 0.000000 0.000000
							CHANNELS 3 Xrotation Yrotation Zrotation
							JOINT LeftShoulder
							{
								OFFSET 2.196100 4.412489 0.087492
								CHANNELS 3 Xrotation Yrotation Zrotation
								JOINT LeftShoulder_split
								{
									OFFSET 2.196100 4.412489 0.087492
									CHANNELS 3 Xrotation Yrotation Zrotation
									JOINT LeftArm
									{
										OFFSET 8.771219 -2.981674 -0.026999
										CHANNELS 3 Xrotation Yrotation Zrotation
										JOINT LeftForeArm
										{
											OFFSET 8.512804 0.000000 -0.000000
											CHANNELS 3 Xrotation Yrotation Zrotation
											JOINT LeftHand
											{
												OFFSET 18.484802 0.000000 -0.000000
												CHANNELS 3 Xrotation Yrotation Zrotation
												End Site
												{
													OFFSET 0 0 0
												}
											}
										}
									}
								}
							}
						}
						JOINT RightShoulder_virtual
						{
							OFFSET 0.000000 0.000000 0.000000
							CHANNELS 3 Xrotation Yrotation Zrotation
							JOINT RightShoulder
							{
								OFFSET -2.196100 4.412496 0.070690
								CHANNELS 3 Xrotation Yrotation Zrotation
								JOINT RightShoulder_split
								{
									OFFSET -2.196100 4.412496 0.070690
									CHANNELS 3 Xrotation Yrotation Zrotation
									JOINT RightArm
									{
										OFFSET -8.771282 -2.981682 -0.094208
										CHANNELS 3 Xrotation Yrotation Zrotation
										JOINT RightForeArm
										{
											OFFSET -8.494598 0.000000 0.000000
											CHANNELS 3 Xrotation Yrotation Zrotation
											JOINT RightHand
											{
												OFFSET -18.483803 0.000000 0.000001
												CHANNELS 3 Xrotation Yrotation Zrotation
												End Site
												{
													OFFSET 0 0 0
												}
											}
										}
									}
								}
							}
						}
					}
				}
			}
		}
	}
}
MOTION
Frames: 7
Frame Time: 0.03333333
-6.243839 8.891098 -25.332823 0.000000 0.000000 0.000000 -91.426610 21.380142 2.514141 -61.846509 7.639050 35.257460 71.526431 10.244461 0.036973 38.369407 1.772174 -17.866291 -3.268917 0.823055 -0.965450 0.000000 0.000000 0.000000 -92.045815 24.066718 3.768667 -37.662066 -4.014586 -47.126529 107.139488 18.098768 3.650701 18.871253 1.171894 22.025586 -2.700940 2.228599 -0.281678 0.000000 0.000000 0.000000 -89.957334 20.402016 0.252110 56.889455 10.767978 -2.027117 18.487136 4.038874 0.609366 0.335090 -2.499852 0.657681 0.000000 0.000000 0.000000 22.061608 4.092011 0.229875 12.677614 -1.385777 -3.339741 29.966304 1.174271 0.496281 0.000000 0.000000 0.000000 20.247466 3.368571 -0.018626 1.326153 -4.451650 -10.223161 -2.796513 -2.794163 -5.515324 -35.324625 -18.749761 -35.548160 -7.869962 -56.077605 -2.427577 0.000000 0.000000 0.000000 19.476337 3.146360 0.575641 0.062852 12.163828 16.657658 -1.730742 -0.421004 -2.908853 -25.809927 -7.274920 35.477188 1.549473 46.437189 -2.245339 0.000000 0.000000 0.000000 
-6.635773 8.869432 -26.285116 0.000000 0.000000 0.000000 -98.934020 20.929283 2.420449 -55.082699 4.396078 35.414295 70.424837 8.483198 1.621075 37.589854 0.843478 -15.970230 -3.499192 1.043942 -1.295413 0.000000 0.000000 0.000000 -99.233913 24.732569 5.280408 -23.934164 -3.590330 -38.325281 103.004266 17.379555 -1.848227 13.154260 -1.312343 26.848077 -2.857992 1.800000 -0.277413 0.000000 0.000000 0.000000 -98.185547 20.308818 0.055115 54.845384 11.156240 -0.385573 19.263003 4.174993 0.718979 0.577749 -2.551617 0.995175 0.000000 0.000000 0.000000 22.072854 4.229922 0.080774 12.754342 -2.184373 -3.155107 31.844336 0.995446 -1.178684 0.000000 0.000000 0.000000 20.600394 3.484917 0.181005 1.045222 -4.022838 -8.761357 -2.025562 -2.512754 -5.337376 -30.059331 -19.140121 -32.750156 -9.548847 -58.374225 -3.863365 0.000000 0.000000 0.000000 19.895871 3.410597 0.684693 -0.089623 13.109672 16.144103 -2.342520 1.887015 -2.870832 -15.188258 -6.221756 35.508388 1.609685 41.306532 -1.534365 0.000000 0.000000 0.000000 
-6.946201 8.962650 -27.192572 0.000000 0.000000 0.000000 -105.828167 20.363978 2.201075 -48.340500 1.397436 36.586362 68.947631 6.143011 2.789479 37.568250 -1.037632 -14.686928 -3.003445 1.294411 -1.518893 0.000000 0.000000 0.000000 -105.738903 25.163047 6.734249 -11.695824 -1.280789 -31.243741 99.831145 16.030051 -6.140982 6.657624 -5.104690 27.409413 -0.694208 1.448071 -0.062077 0.000000 0.000000 0.000000 -105.814356 20.450512 0.061251 52.491619 10.220208 1.292581 19.093934 3.844998 0.769616 1.748381 -2.178918 1.700153 0.000000 0.000000 0.000000 21.302076 3.905179 -0.049561 12.406269 -2.866215 -2.513854 32.045608 0.733099 -2.913857 0.000000 0.000000 0.000000 19.935794 3.076635 0.356319 0.589782 -4.149871 -7.623152 -1.205575 -2.111452 -4.678919 -24.270753 -19.303742 -30.999804 -10.206666 -58.674590 -4.623021 0.000000 0.000000 0.000000 19.387946 3.165878 0.777817 0.158680 13.892965 15.226556 -3.217398 3.656004 -2.826867 -4.053218 -3.478018 35.066755 1.785915 33.935221 -1.044130 0.000000 0.000000 0.000000 
-7.276337 9.185104 -28.182356 0.000000 0.000000 0.000000 -111.753779 19.863488 2.136876 -41.571120 -0.713415 38.851526 66.829877 3.812928 3.566353 37.243567 -3.328979 -14.332370 -2.429766 1.516486 -1.485064 0.000000 0.000000 0.000000 -111.595579 25.201013 7.968403 -2.703284 1.548902 -26.708680 98.429043 14.307532 -8.704093 1.708466 -8.442734 24.446447 2.318114 1.294122 0.023362 0.000000 0.000000 0.000000 -112.393563 20.798896 0.638141 49.807454 7.806741 2.580209 17.799622 2.935449 0.707073 2.311324 -1.706962 2.223727 0.000000 0.000000 0.000000 19.648441 3.034207 -0.181503 11.703070 -3.373575 -1.434921 30.955428 0.952159 -4.927689 0.000000 0.000000 0.000000 18.225207 2.112269 0.423285 0.093445 -4.317413 -6.936472 -0.428232 -1.708155 -3.563711 -17.304764 -19.396805 -30.118030 -9.390325 -56.851209 -4.284217 0.000000 0.000000 0.000000 17.862990 2.254447 0.788771 0.779058 13.938961 14.021322 -3.542005 4.219014 -2.827921 6.676005 0.281550 34.728315 2.199177 29.405750 -0.956945 0.000000 0.000000 0.000000 
-7.655123 9.513302 -29.233072 0.000000 0.000000 0.000000 -116.473782 19.478340 2.347767 -35.247437 -1.649391 41.943181 64.129712 1.844407 3.907295 35.838023 -5.602958 -14.943639 -2.342161 1.654340 -1.026743 0.000000 0.000000 0.000000 -116.690353 24.982675 9.142152 2.508270 4.042666 -24.603989 99.171806 13.133919 -10.014919 0.285759 -9.594957 21.615674 3.574310 1.309840 -0.351567 0.000000 0.000000 0.000000 -117.624505 21.116657 1.804025 46.891687 4.063949 3.139643 15.536739 1.481607 0.486974 2.348120 -1.219624 2.267904 0.000000 0.000000 0.000000 17.216948 1.616022 -0.332134 10.245611 -3.618944 -0.290389 28.829689 1.868799 -7.303590 0.000000 0.000000 0.000000 15.737422 0.650605 0.362492 -0.315172 -4.254740 -6.361953 -0.255765 -1.020063 -2.778528 -8.654881 -19.442074 -29.398760 -7.848068 -53.129508 -3.410559 0.000000 0.000000 0.000000 15.416666 0.676701 0.668411 1.594146 12.882434 12.734208 -3.105616 3.470766 -2.953240 16.591692 4.090991 34.794548 2.752766 31.487514 -1.285955 0.000000 0.000000 0.000000 
-8.093061 9.877024 -30.301901 0.000000 0.000000 0.000000 -120.123029 19.085739 2.755712 -30.115021 -1.846740 45.298808 61.676957 0.548388 3.923047 33.544483 -7.465019 -16.472919 -2.791653 1.705078 -0.270626 0.000000 0.000000 0.000000 -120.940261 24.464329 10.081635 4.535269 6.270857 -23.966056 101.700185 12.651433 -10.721847 1.911273 -8.686350 20.307040 2.448710 1.350062 -1.052888 0.000000 0.000000 0.000000 -121.562423 20.981009 3.143126 44.077509 -0.492802 2.977089 12.697506 -0.340902 0.090435 1.536333 -1.033915 1.759790 0.000000 0.000000 0.000000 14.297756 -0.141585 -0.514327 7.945922 -3.638646 0.687324 26.109819 3.684545 -9.982773 0.000000 0.000000 0.000000 12.916920 -1.141935 0.138640 -0.558723 -3.550110 -5.736979 -0.531540 -0.435845 -2.432970 1.520141 -19.190048 -27.965334 -6.357219 -48.683632 -2.564775 0.000000 0.000000 0.000000 12.513654 -1.323805 0.354058 2.359804 10.754445 11.129952 -1.816175 1.843102 -2.899397 25.120292 6.975868 34.934471 3.485670 40.258262 -2.127600 0.000000 0.000000 0.000000 
-8.565316 10.137115 -31.461966 0.000000 0.000000 0.000000 -122.790149 18.762403 3.622684 -26.815147 -1.859927 48.536485 59.988459 0.169972 3.724301 30.712560 -8.324007 -18.343547 -2.854558 1.698878 0.259070 0.000000 0.000000 0.000000 -124.015745 23.640825 10.732858 4.319860 8.460590 -24.011284 104.919547 12.545397 -10.984128 4.048115 -6.884499 19.071223 1.374596 1.289219 -1.660644 0.000000 0.000000 0.000000 -124.058734 20.414206 4.263986 41.557781 -5.155116 2.254437 9.832722 -2.280455 -0.378985 0.239523 -0.806640 1.053670 0.000000 0.000000 0.000000 11.311569 -1.981772 -0.766384 4.776215 -3.548132 1.126388 23.175477 6.445674 -12.867268 0.000000 0.000000 0.000000 10.299152 -2.909679 -0.200704 -0.582195 -2.085086 -4.924581 -1.214960 -0.195328 -2.463643 12.469624 -18.321830 -25.304686 -5.268394 -44.697134 -1.888181 0.000000 0.000000 0.000000 9.589709 -3.383654 -0.127368 2.871874 7.922305 9.314119 0.237626 0.319036 -2.771618 31.871746 8.568284 35.130542 4.593093 52.548467 -3.540309 0.000000 0.000000 0.000000 
